#tb 0: 1/25
#media_type 0: video
#codec_id 0: rawvideo
#dimensions 0: 352x288
#sar 0: 0/1
0,          0,          0,        1,   152064, 0x995bb4bd
0,          1,          1,        1,   152064, 0xad287357
0,          2,          2,        1,   152064, 0x38fa4661
0,          3,          3,        1,   152064, 0x8aae73cf
0,          4,          4,        1,   152064, 0x4a13eada
0,          5,          5,        1,   152064, 0x48b33901
0,          6,          6,        1,   152064, 0x011487bc
0,          7,          7,        1,   152064, 0xd4ce1925
0,          8,          8,        1,   152064, 0x5d679ddd
0,          9,          9,        1,   152064, 0x276cd5cf
0,         10,         10,        1,   152064, 0x99c625f0
0,         11,         11,        1,   152064, 0xb2f756d1
0,         12,         12,        1,   152064, 0xb19c2978
0,         13,         13,        1,   152064, 0xdac0ff3c
0,         14,         14,        1,   152064, 0x3c1c8d63
0,         15,         15,        1,   152064, 0x818ea0a8
0,         16,         16,        1,   152064, 0xa7c122a5
0,         17,         17,        1,   152064, 0x67ad3519
0,         18,         18,        1,   152064, 0xc81b2a88
0,         19,         19,        1,   152064, 0x8ae6633e
0,         20,         20,        1,   152064, 0xed945788
0,         21,         21,        1,   152064, 0x4c740bcb
0,         22,         22,        1,   152064, 0xd8408d09
0,         23,         23,        1,   152064, 0xb710e8b8
0,         24,         24,        1,   152064, 0xb8c647b9
0,         25,         25,        1,   152064, 0x802b2e23
0,         26,         26,        1,   152064, 0x30672529
0,         27,         27,        1,   152064, 0x328a72b6
0,         28,         28,        1,   152064, 0xeb6dbe94
0,         29,         29,        1,   152064, 0x1c19dcc5
0,         30,         30,        1,   152064, 0xfdc6b998
0,         31,         31,        1,   152064, 0xf9e2cd80
0,         32,         32,        1,   152064, 0x025eb15e
0,         33,         33,        1,   152064, 0xfd998ad8
0,         34,         34,        1,   152064, 0x8fdf736f
0,         35,         35,        1,   152064, 0xa5a7554a
0,         36,         36,        1,   152064, 0xcea63304
0,         37,         37,        1,   152064, 0xcb28ec28
0,         38,         38,        1,   152064, 0x92efb591
0,         39,         39,        1,   152064, 0x0f2376c3
0,         40,         40,        1,   152064, 0xe9cb5ecf
0,         41,         41,        1,   152064, 0xcd2d0eba
0,         42,         42,        1,   152064, 0xd57fe4fd
0,         43,         43,        1,   152064, 0xc486ab8e
0,         44,         44,        1,   152064, 0x01a1f709
0,         45,         45,        1,   152064, 0x7ac5b13a
0,         46,         46,        1,   152064, 0x6f519279
0,         47,         47,        1,   152064, 0xfd7cd9a0
0,         48,         48,        1,   152064, 0xfae649d2
0,         49,         49,        1,   152064, 0x618507ca
0,         50,         50,        1,   152064, 0xb177bc15
0,         51,         51,        1,   152064, 0x6fa36854
0,         52,         52,        1,   152064, 0xc13cb77d
0,         53,         53,        1,   152064, 0x6d40cb01
0,         54,         54,        1,   152064, 0xa3db96a2
0,         55,         55,        1,   152064, 0xe5ba6c99
0,         56,         56,        1,   152064, 0xca9ff3ee
0,         57,         57,        1,   152064, 0x6c016c65
0,         58,         58,        1,   152064, 0xdf93ed80
0,         59,         59,        1,   152064, 0x93112ec8
0,         60,         60,        1,   152064, 0x8ab3ea14
0,         61,         61,        1,   152064, 0x02f5b891
0,         62,         62,        1,   152064, 0xdafd562b
0,         63,         63,        1,   152064, 0xa96a2bd7
0,         64,         64,        1,   152064, 0xdff8bc68
0,         65,         65,        1,   152064, 0x8d956b4b
0,         66,         66,        1,   152064, 0xb4aeb960
0,         67,         67,        1,   152064, 0x391cf0dd
0,         68,         68,        1,   152064, 0x03137de9
0,         69,         69,        1,   152064, 0x2bfa8c4b
0,         70,         70,        1,   152064, 0xfb54d3a5
0,         71,         71,        1,   152064, 0x650146e7
0,         72,         72,        1,   152064, 0xd3a7765f
0,         73,         73,        1,   152064, 0x49d72b90
0,         74,         74,        1,   152064, 0xf089b357
0,         75,         75,        1,   152064, 0x23a2be41
0,         76,         76,        1,   152064, 0x2ea86592
0,         77,         77,        1,   152064, 0x99d6f56b
0,         78,         78,        1,   152064, 0xc2ca75b9
0,         79,         79,        1,   152064, 0x390b7278
0,         80,         80,        1,   152064, 0x0f6d1f1e
0,         81,         81,        1,   152064, 0x79e2a3f4
0,         82,         82,        1,   152064, 0x51d5e1da
0,         83,         83,        1,   152064, 0xdb57419a
0,         84,         84,        1,   152064, 0xf90a4153
0,         85,         85,        1,   152064, 0xd192f6c6
0,         86,         86,        1,   152064, 0x8cd3895a
0,         87,         87,        1,   152064, 0x0d3ec577
0,         88,         88,        1,   152064, 0x146e8492
0,         89,         89,        1,   152064, 0xc9939c22
0,         90,         90,        1,   152064, 0xf1f4275e
0,         91,         91,        1,   152064, 0xb898eb35
0,         92,         92,        1,   152064, 0xed315ee9
0,         93,         93,        1,   152064, 0x9046b760
0,         94,         94,        1,   152064, 0x599a736b
0,         95,         95,        1,   152064, 0xaef20726
0,         96,         96,        1,   152064, 0x0d136768
0,         97,         97,        1,   152064, 0xfe4ed2a8
0,         98,         98,        1,   152064, 0x5a85524b
0,         99,         99,        1,   152064, 0x6d495dd2
0,        100,        100,        1,   152064, 0x04bdb815
0,        101,        101,        1,   152064, 0x28aae1c5
0,        102,        102,        1,   152064, 0xc20bc8d9
0,        103,        103,        1,   152064, 0xa33d9b41
0,        104,        104,        1,   152064, 0x6269cb43
0,        105,        105,        1,   152064, 0x4f81d636
0,        106,        106,        1,   152064, 0xc6062166
0,        107,        107,        1,   152064, 0xb027fbcc
0,        108,        108,        1,   152064, 0x73a7a584
0,        109,        109,        1,   152064, 0xf67e520a
0,        110,        110,        1,   152064, 0x94eff023
0,        111,        111,        1,   152064, 0xef1da8e5
0,        112,        112,        1,   152064, 0x2d9ab411
0,        113,        113,        1,   152064, 0xf0c39b5d
0,        114,        114,        1,   152064, 0xb2374724
0,        115,        115,        1,   152064, 0x939a5243
0,        116,        116,        1,   152064, 0xee3438db
0,        117,        117,        1,   152064, 0x7da04012
0,        118,        118,        1,   152064, 0xac611668
0,        119,        119,        1,   152064, 0xdce3062e
0,        120,        120,        1,   152064, 0xb57cc00e
0,        121,        121,        1,   152064, 0xaf96b59e
0,        122,        122,        1,   152064, 0x56789c13
0,        123,        123,        1,   152064, 0xb1f678b5
0,        124,        124,        1,   152064, 0xb340b8c4
0,        125,        125,        1,   152064, 0x86e6e304
0,        126,        126,        1,   152064, 0xa056e037
0,        127,        127,        1,   152064, 0x16885d27
0,        128,        128,        1,   152064, 0x9c5ac065
0,        129,        129,        1,   152064, 0x563d5335
0,        130,        130,        1,   152064, 0x3ca71c1e
0,        131,        131,        1,   152064, 0xad34e16c
0,        132,        132,        1,   152064, 0x6d074b27
0,        133,        133,        1,   152064, 0x9b1c4909
0,        134,        134,        1,   152064, 0xdbced198
0,        135,        135,        1,   152064, 0x8a0ded00
0,        136,        136,        1,   152064, 0x5ffc209b
0,        137,        137,        1,   152064, 0x47cfd269
0,        138,        138,        1,   152064, 0xe3c0137e
0,        139,        139,        1,   152064, 0xcb6a5e53
0,        140,        140,        1,   152064, 0x87cec05f
0,        141,        141,        1,   152064, 0x92721dd2
0,        142,        142,        1,   152064, 0x3f7d7b3b
0,        143,        143,        1,   152064, 0xd63ef417
0,        144,        144,        1,   152064, 0xf8e4b05a
0,        145,        145,        1,   152064, 0xb5dcb421
0,        146,        146,        1,   152064, 0x53c96f6a
0,        147,        147,        1,   152064, 0x24ae98a3
0,        148,        148,        1,   152064, 0x2e9b5fff
0,        149,        149,        1,   152064, 0x7795bf12
0,        150,        150,        1,   152064, 0x499d37ca
0,        151,        151,        1,   152064, 0xfe478487
0,        152,        152,        1,   152064, 0xcd661afb
0,        153,        153,        1,   152064, 0x44f8bf00
0,        154,        154,        1,   152064, 0x90b67809
0,        155,        155,        1,   152064, 0x8f5726d1
0,        156,        156,        1,   152064, 0x2e3c39d5
0,        157,        157,        1,   152064, 0x4b67c4e6
0,        158,        158,        1,   152064, 0x9fecb7cf
0,        159,        159,        1,   152064, 0x207766ea
0,        160,        160,        1,   152064, 0x5846bf7b
0,        161,        161,        1,   152064, 0x4237fba1
0,        162,        162,        1,   152064, 0x983e0cbd
0,        163,        163,        1,   152064, 0x6be100d1
0,        164,        164,        1,   152064, 0x9d0beb8f
0,        165,        165,        1,   152064, 0x234b82e7
0,        166,        166,        1,   152064, 0x83fb5ef1
0,        167,        167,        1,   152064, 0xf503dcb2
0,        168,        168,        1,   152064, 0x031a27f2
0,        169,        169,        1,   152064, 0x2f1abf24
0,        170,        170,        1,   152064, 0x54d77010
0,        171,        171,        1,   152064, 0x049fc0fc
0,        172,        172,        1,   152064, 0x20f2f7e7
0,        173,        173,        1,   152064, 0xc0d57467
0,        174,        174,        1,   152064, 0xbe464eef
0,        175,        175,        1,   152064, 0x035c9052
0,        176,        176,        1,   152064, 0x91cba4fb
0,        177,        177,        1,   152064, 0x11cdbbfb
0,        178,        178,        1,   152064, 0xe61116d5
0,        179,        179,        1,   152064, 0x16db46b8
0,        180,        180,        1,   152064, 0x54f30d9f
0,        181,        181,        1,   152064, 0x211a8d2d
0,        182,        182,        1,   152064, 0x5a74a56b
0,        183,        183,        1,   152064, 0x0ff4ba72
0,        184,        184,        1,   152064, 0x4c398ad6
0,        185,        185,        1,   152064, 0x830814f0
0,        186,        186,        1,   152064, 0xa51f4bab
0,        187,        187,        1,   152064, 0xf3460de6
0,        188,        188,        1,   152064, 0x7e1979a1
0,        189,        189,        1,   152064, 0x4b3ebb3a
0,        190,        190,        1,   152064, 0x83d1f4f8
0,        191,        191,        1,   152064, 0xfbf08683
0,        192,        192,        1,   152064, 0x901c07ec
0,        193,        193,        1,   152064, 0xbc2dc1c7
0,        194,        194,        1,   152064, 0x6e646b3b
0,        195,        195,        1,   152064, 0x51a25aab
0,        196,        196,        1,   152064, 0xa042ab78
0,        197,        197,        1,   152064, 0xb972af58
0,        198,        198,        1,   152064, 0xcdca9568
0,        199,        199,        1,   152064, 0x17b69d1c
0,        200,        200,        1,   152064, 0x41c43ea2
0,        201,        201,        1,   152064, 0x195fc7a0
0,        202,        202,        1,   152064, 0xf4cec580
0,        203,        203,        1,   152064, 0xb3b10936
0,        204,        204,        1,   152064, 0x102bc2ec
0,        205,        205,        1,   152064, 0xc99d4767
0,        206,        206,        1,   152064, 0x60c745b0
0,        207,        207,        1,   152064, 0x8176e0cf
0,        208,        208,        1,   152064, 0xd47e69b5
0,        209,        209,        1,   152064, 0xacce674c
0,        210,        210,        1,   152064, 0x031b51f8
0,        211,        211,        1,   152064, 0x0eb681ef
0,        212,        212,        1,   152064, 0x0b69334b
0,        213,        213,        1,   152064, 0xda819c1f
0,        214,        214,        1,   152064, 0xa93f62d2
0,        215,        215,        1,   152064, 0x51374db5
0,        216,        216,        1,   152064, 0x885dccff
0,        217,        217,        1,   152064, 0xd0780444
0,        218,        218,        1,   152064, 0xa31733ca
0,        219,        219,        1,   152064, 0x3f3de84e
0,        220,        220,        1,   152064, 0x2af2b2c3
0,        221,        221,        1,   152064, 0xa62dceae
0,        222,        222,        1,   152064, 0xca1cffd1
0,        223,        223,        1,   152064, 0x3c7d561b
0,        224,        224,        1,   152064, 0xbc04130a
0,        225,        225,        1,   152064, 0xbd2829ae
0,        226,        226,        1,   152064, 0xdbbb9820
0,        227,        227,        1,   152064, 0xfc3ef628
0,        228,        228,        1,   152064, 0xd5da3ec3
0,        229,        229,        1,   152064, 0x62d5fcc1
0,        230,        230,        1,   152064, 0x455a8dae
0,        231,        231,        1,   152064, 0x421c9147
0,        232,        232,        1,   152064, 0x6a168484
0,        233,        233,        1,   152064, 0x7ba15d32
0,        234,        234,        1,   152064, 0xd089ed27
0,        235,        235,        1,   152064, 0x8fc4d894
0,        236,        236,        1,   152064, 0x99e47125
0,        237,        237,        1,   152064, 0xf55dda68
0,        238,        238,        1,   152064, 0x6bf06cf1
0,        239,        239,        1,   152064, 0x7dc41a9d
0,        240,        240,        1,   152064, 0x78b84019
0,        241,        241,        1,   152064, 0x85ae8973
0,        242,        242,        1,   152064, 0x7b7aeabe
0,        243,        243,        1,   152064, 0xf9a8f6bf
0,        244,        244,        1,   152064, 0xe195ddcd
0,        245,        245,        1,   152064, 0x83edffe9
0,        246,        246,        1,   152064, 0x59cce97a
0,        247,        247,        1,   152064, 0x15268af1
0,        248,        248,        1,   152064, 0x270cca95
0,        249,        249,        1,   152064, 0x8bced1f9
0,        250,        250,        1,   152064, 0x08ee5cec
0,        251,        251,        1,   152064, 0x01e74f95
0,        252,        252,        1,   152064, 0x7e19238f
0,        253,        253,        1,   152064, 0x6bcb2b9d
0,        254,        254,        1,   152064, 0x58111385
0,        255,        255,        1,   152064, 0x6c7aa1f7
0,        256,        256,        1,   152064, 0xb713a822
0,        257,        257,        1,   152064, 0x1d645cee
0,        258,        258,        1,   152064, 0x9c592969
0,        259,        259,        1,   152064, 0x2472769e
0,        260,        260,        1,   152064, 0x71b7a5ad
0,        261,        261,        1,   152064, 0xc6bba1c6
0,        262,        262,        1,   152064, 0x7351f305
0,        263,        263,        1,   152064, 0x579edbba
0,        264,        264,        1,   152064, 0x90eda919
0,        265,        265,        1,   152064, 0x2833b10d
0,        266,        266,        1,   152064, 0x4b967d65
0,        267,        267,        1,   152064, 0x6e7d1702
0,        268,        268,        1,   152064, 0x59dbcf5b
0,        269,        269,        1,   152064, 0xa138847b
0,        270,        270,        1,   152064, 0xb2414e8d
0,        271,        271,        1,   152064, 0xb90497f6
0,        272,        272,        1,   152064, 0xcd728159
0,        273,        273,        1,   152064, 0x005d5bdd
0,        274,        274,        1,   152064, 0x27c88fb6
0,        275,        275,        1,   152064, 0x3ccb8a93
0,        276,        276,        1,   152064, 0xc50256dd
0,        277,        277,        1,   152064, 0x111e7dee
0,        278,        278,        1,   152064, 0x259d4a5d
0,        279,        279,        1,   152064, 0x9385148b
0,        280,        280,        1,   152064, 0x74002ab0
0,        281,        281,        1,   152064, 0xd2c74adc
0,        282,        282,        1,   152064, 0x72854b2a
0,        283,        283,        1,   152064, 0x638e5c08
0,        284,        284,        1,   152064, 0x9626bbb3
0,        285,        285,        1,   152064, 0xc107c18f
0,        286,        286,        1,   152064, 0x8bd04578
0,        287,        287,        1,   152064, 0xbcdb6db6
0,        288,        288,        1,   152064, 0x9d0c81be
0,        289,        289,        1,   152064, 0xf25106b6
0,        290,        290,        1,   152064, 0x54c25254
0,        291,        291,        1,   152064, 0x4bf74663
0,        292,        292,        1,   152064, 0x0051b054
0,        293,        293,        1,   152064, 0x5193d3d4
0,        294,        294,        1,   152064, 0xb5d0d045
0,        295,        295,        1,   152064, 0x350a31ca
0,        296,        296,        1,   152064, 0xb8fb7264
0,        297,        297,        1,   152064, 0x7fb97645
0,        298,        298,        1,   152064, 0xcd948c41
0,        299,        299,        1,   152064, 0x38c7570a
